<svg width="64" height="64" viewBox="0 0 64 64" fill="none" xmlns="http://www.w3.org/2000/svg"><path d="M31.494 19.152c-.235.059-.475.112-.54.128-.122.027-.234.23-.234.421 0 .107-.043.134-.304.192-.72.16-1.616.566-2.096.95-.133.106-.741.629-1.36 1.157-.613.533-1.84 1.568-2.72 2.299-.88.736-1.984 1.68-2.453 2.101-1.152 1.03-3.568 3.456-5.419 5.44-3.75 4.021-4 4.325-5.621 6.907-.459.73-1.061 1.669-1.333 2.08-.272.41-.523.837-.56.949-.086.272 0 .645.26 1.125.502.934.614 1.11.8 1.243.107.08.268.213.364.299.117.112.223.16.33.154.39-.01.678-.256 2.726-2.277a494.212 494.212 0 012.746-2.693c.41-.4 2.214-2.166 4-3.92 4.352-4.278 5.05-4.944 6.88-6.56 2.854-2.523 4.357-3.979 4.768-4.608.123-.192.379-.656.57-1.035.289-.565.363-.677.417-.619.037.043.32.384.624.763.512.64.922 1.115 2.875 3.339.693.789 1.946 2.24 2.746 3.173.64.757 1.765 2.01 2.64 2.96a418.923 418.923 0 005.093 5.333c.672.688 1.595 1.638 2.054 2.102 1.173 1.205 1.872 1.861 2.426 2.282.267.198.587.448.72.555.134.107.337.24.449.299.431.224 1.349.026 1.717-.368.144-.155.459-.731.437-.8a.493.493 0 01.075-.203c.16-.304.218-.87.192-1.819-.043-1.285-.144-1.573-.939-2.554-.8-.982-1.568-1.691-4.49-4.134-3.494-2.922-4.683-3.962-7.489-6.581-1.04-.965-2.752-2.48-3.471-3.072-.273-.219-.86-.699-1.307-1.067a134.988 134.988 0 01-2.843-2.373c-.64-.555-.677-.597-.677-.79 0-.191-.01-.202-.336-.357-.187-.09-.373-.16-.416-.16a.366.366 0 01-.176-.08.401.401 0 00-.181-.08c-.043 0-.134-.048-.209-.106-.165-.128-.186-.128-.735.005z" fill="#000"/></svg>