<svg width="64" height="64" viewBox="0 0 64 64" fill="none" xmlns="http://www.w3.org/2000/svg"><path d="M53.557 9.221c-.16.166-.453.374-.81.566-.672.368-1.12.666-2.075 1.386-1.29.976-1.904 1.542-4.832 4.475-1.584 1.59-3.397 3.365-4.027 3.952-1.952 1.819-3.146 2.976-5.44 5.28-3.168 3.179-4.357 4.347-4.421 4.347-.053 0-1.221-.982-3.765-3.168a156.706 156.706 0 01-2.4-2.118c-1.531-1.402-2.646-2.464-5.174-4.928a299.636 299.636 0 00-6.213-5.872c-1.675-1.546-2.427-2.197-3.045-2.629-.411-.293-.571-.325-.966-.213-.176.048-.202.074-.202.218 0 .315.272.71 1.146 1.67.294.32.811.896 1.147 1.28 1.888 2.144 3.483 3.904 7.461 8.24 1.574 1.706 4.448 4.586 6.379 6.378.88.816 2.027 1.888 2.544 2.384l.95.902-1.537 1.584a504.02 504.02 0 00-2.09 2.165c-.31.325-1.232 1.285-2.059 2.133-1.717 1.771-2.256 2.358-4.016 4.368-2.507 2.854-4.363 4.822-5.963 6.331-1.424 1.344-2.197 2.15-2.373 2.475a4.031 4.031 0 00-.459 1.69c-.032.715.048 1.147.288 1.552.102.171.182.331.182.358 0 .026.144.17.314.314.763.63 1.702.678 2.555.128.576-.368 3.973-3.845 6.843-7.002 2.56-2.816 3.04-3.312 7.37-7.627 2.555-2.539 4.656-4.613 4.678-4.613.037 0 .954.981 2.293 2.453 1.861 2.048 2.736 2.955 6.187 6.453 3.306 3.344 4.133 4.214 5.866 6.16 1.654 1.856 2.566 2.806 3.6 3.734.15.133.475.426.731.656.95.864 1.53 1.269 1.877 1.317.294.043.619-.032.768-.176.134-.128.39-.597.347-.64-.01-.016.016-.09.07-.17.138-.209.165-.88.053-1.366-.112-.507-.304-.837-.79-1.36-.56-.603-1.2-1.355-2.01-2.368-1.424-1.77-3.27-3.685-6.512-6.747-2.454-2.314-4.88-4.73-6.614-6.586a131.182 131.182 0 00-2.65-2.774c-.507-.512-.923-.954-.928-.981-.006-.021.341-.416.762-.88a76.74 76.74 0 001.243-1.365 439.45 439.45 0 003.733-4.352c.091-.107.736-.859 1.44-1.675 2.288-2.645 3.046-3.579 4.694-5.76 1.28-1.701 1.136-1.51 2.224-2.88a63.98 63.98 0 011.728-2.08c1.514-1.728 1.952-2.283 2.288-2.923.304-.576.453-1.034.453-1.397 0-.245-.021-.32-.133-.427-.214-.218-.422-.181-.71.128z" fill="#000"/></svg>