<svg width="64" height="64" viewBox="0 0 64 64" fill="none" xmlns="http://www.w3.org/2000/svg"><path d="M21.493 7.899c-.837.02-2.933.08-4.666.128-1.728.042-3.28.106-3.44.138-1.75.336-2.363.534-2.843.918-.283.229-.517.602-.517.82 0 .198.17.56.421.908.363.5 1.872 1.552 2.56 1.786.336.118.421.123 1.765.107 1.632-.01 3.179-.07 6.907-.25 5.056-.251 7.6-.331 11.093-.363 3.771-.038 7.051.08 13.094.469 3.658.235 4.858.293 6.106.293 1.936 0 2.939-.282 3.291-.933.08-.144.139-.277.139-.293a.601.601 0 01.053-.176c.037-.086.064-.256.064-.39 0-.208-.016-.245-.144-.298-.09-.038-.512-.064-1.03-.07a10.958 10.958 0 01-1.466-.101c-2.523-.395-3.797-.597-5.253-.832a256.675 256.675 0 00-7.84-1.12c-2.928-.363-5.115-.56-7.84-.699-1.462-.07-8.544-.101-10.454-.042zM28.8 28.89c-3.333.091-11.605.47-13.333.609-1.286.101-2.662.309-3.307.496l-1.013.277c-.97.25-1.734.603-2.544 1.157-1.275.87-1.243 1.472.128 2.294.725.442 2.288 1.056 3.322 1.312 1.206.298 1.264.298 4.72.085.704-.043 2.795-.165 4.64-.267 1.851-.1 4.635-.256 6.187-.346a455.77 455.77 0 014.187-.214c.746-.032 1.53-.064 1.733-.08.208-.01 3.53-.048 7.387-.074 3.856-.032 7.685-.08 8.507-.112 3.189-.118 5.173-.342 5.78-.65.198-.102.278-.193.417-.444.09-.176.17-.368.17-.42a.43.43 0 01.086-.198c.053-.054.096-.24.117-.47.038-.464.005-.506-.538-.768-.944-.458-2.928-.832-6.086-1.152-1.755-.181-9.072-.72-11.92-.885-2.874-.16-6.128-.219-8.64-.15zm-5.146 21.489c-1.403.042-3.307.138-3.76.186-1.717.176-3.472.512-5.547 1.056-2.981.784-4.64 1.382-4.842 1.75-.086.149.106.453.426.672.742.506 2.95 1.248 5.275 1.77.896.198 2.501.475 3.114.534.209.021 5.707.042 12.214.053 6.512.005 12.176.027 12.587.048 4.565.23 8.16.304 9.183.187 1.552-.171 2.384-.619 2.79-1.504.096-.214.197-.432.23-.491.084-.16.111-.843.042-.976-.117-.219-1.243-.715-2.245-.992-1.014-.272-3.878-.843-6.32-1.259-3.078-.522-5.648-.773-9.814-.965-1.13-.048-12.112-.107-13.333-.07z" fill="#000"/></svg>